HIERARCHY
ROOT Hips
{
	OFFSET 0.000000 0.000000 0.000000
	CHANNELS 6 Xposition Yposition Zposition Zrotation Yrotation Xrotation 
	JOINT LHipJoint
	{
		OFFSET 0.000000 0.000000 0.000000
		CHANNELS 3 Zrotation Yrotation Xrotation
		JOINT LeftUpLeg
		{
			OFFSET 1.363060 -1.794630 0.839290
			CHANNELS 3 Zrotation Yrotation Xrotation
			JOINT LeftLeg
			{
				OFFSET 2.448110 -6.726130 0.000000
				CHANNELS 3 Zrotation Yrotation Xrotation
				JOINT LeftFoot
				{
					OFFSET 2.562200 -7.039590 0.000000
					CHANNELS 3 Zrotation Yrotation Xrotation
					JOINT LeftToeBase
					{
						OFFSET 0.157640 -0.433110 2.322550
						CHANNELS 3 Zrotation Yrotation Xrotation
						End Site
						{
							OFFSET 0.000000 0.000000 0.000000
						}
					}
				}
			}
		}
	}
	JOINT RHipJoint
	{
		OFFSET 0.000000 0.000000 0.000000
		CHANNELS 3 Zrotation Yrotation Xrotation
		JOINT RightUpLeg
		{
			OFFSET -1.305520 -1.794630 0.839290
			CHANNELS 3 Zrotation Yrotation Xrotation
			JOINT RightLeg
			{
				OFFSET -2.542530 -6.985550 0.000000
				CHANNELS 3 Zrotation Yrotation Xrotation
				JOINT RightFoot
				{
					OFFSET -2.568260 -7.056230 0.000000
					CHANNELS 3 Zrotation Yrotation Xrotation
					JOINT RightToeBase
					{
						OFFSET -0.164730 -0.452590 2.363150
						CHANNELS 3 Zrotation Yrotation Xrotation
						End Site
						{
							OFFSET 0.000000 0.000000 0.000000
						}
					}
				}
			}
		}
	}
	JOINT LowerBack
	{
		OFFSET 0.000000 0.000000 0.000000
		CHANNELS 3 Zrotation Yrotation Xrotation
		JOINT Spine
		{
			OFFSET 0.028270 2.035590 -0.193380
			CHANNELS 3 Zrotation Yrotation Xrotation
			JOINT Spine1
			{
				OFFSET 0.056720 2.048850 -0.042750
				CHANNELS 3 Zrotation Yrotation Xrotation
				JOINT Neck
				{
					OFFSET 0.000000 0.000000 0.000000
					CHANNELS 3 Zrotation Yrotation Xrotation
					JOINT Neck1
					{
						OFFSET -0.054170 1.746240 0.172020
						CHANNELS 3 Zrotation Yrotation Xrotation
						JOINT Head
						{
							OFFSET 0.104070 1.761360 -0.123970
							CHANNELS 3 Zrotation Yrotation Xrotation
							End Site
							{
								OFFSET 0.000000 0.000000 0.000000
							}
						}
					}
				}
				JOINT LeftShoulder
				{
					OFFSET 0.000000 0.000000 0.000000
					CHANNELS 3 Zrotation Yrotation Xrotation
					JOINT LeftArm
					{
						OFFSET 3.362410 1.200890 -0.311210
						CHANNELS 3 Zrotation Yrotation Xrotation
						JOINT LeftForeArm
						{
							OFFSET 4.983000 -0.000000 -0.000000
							CHANNELS 3 Zrotation Yrotation Xrotation
							JOINT LeftHand
							{
								OFFSET 3.483560 -0.000000 -0.000000
								CHANNELS 3 Zrotation Yrotation Xrotation
								JOINT LeftFingerBase
								{
									OFFSET 0.000000 0.000000 0.000000
									CHANNELS 3 Zrotation Yrotation Xrotation
									JOINT LeftHandIndex1
									{
										OFFSET 0.715260 -0.000000 -0.000000
										CHANNELS 3 Zrotation Yrotation Xrotation
										End Site
										{
											OFFSET 0.000000 0.000000 0.000000
										}
									}
								}
								JOINT LThumb
								{
									OFFSET 0.000000 0.000000 0.000000
									CHANNELS 3 Zrotation Yrotation Xrotation
									End Site
									{
										OFFSET 0.000000 0.000000 0.000000
									}
								}
							}
						}
					}
				}
				JOINT RightShoulder
				{
					OFFSET 0.000000 0.000000 0.000000
					CHANNELS 3 Zrotation Yrotation Xrotation
					JOINT RightArm
					{
						OFFSET -3.136600 1.374050 -0.404650
						CHANNELS 3 Zrotation Yrotation Xrotation
						JOINT RightForeArm
						{
							OFFSET -5.241900 -0.000000 -0.000000
							CHANNELS 3 Zrotation Yrotation Xrotation
							JOINT RightHand
							{
								OFFSET -3.444170 -0.000000 -0.000000
								CHANNELS 3 Zrotation Yrotation Xrotation
								JOINT RightFingerBase
								{
									OFFSET 0.000000 0.000000 0.000000
									CHANNELS 3 Zrotation Yrotation Xrotation
									JOINT RightHandIndex1
									{
										OFFSET -0.622530 -0.000000 -0.000000
										CHANNELS 3 Zrotation Yrotation Xrotation
										End Site
										{
											OFFSET 0.000000 0.000000 0.000000
										}
									}
								}
								JOINT RThumb
								{
									OFFSET 0.000000 0.000000 0.000000
									CHANNELS 3 Zrotation Yrotation Xrotation
									End Site
									{
										OFFSET 0.000000 0.000000 0.000000
									}
								}
							}
						}
					}
				}
			}
		}
	}
}
MOTION
Frames: 8
Frame Time: 0.033333
-1.630496 17.240339 23.841112 -1.536139 -14.858637 13.225906 -9.107865 6.774490 10.932140 -7.856337 -19.038427 -14.849592 32.434293 -23.458903 -34.412817 -8.963657 4.857753 78.844818 0.000000 0.000000 0.000000 8.989034 -14.232254 -3.658514 20.396084 21.540192 -16.956633 -15.431510 -10.277678 72.121824 12.548680 -7.169808 -13.487747 0.000000 0.000000 0.000000 -2.233653 3.990626 3.800540 -2.301565 2.952810 1.831606 6.033905 2.710045 -5.961819 5.324256 0.839369 -6.740225 2.963072 0.783888 -8.474789 0.000000 0.000000 0.000000 -3.075272 9.074096 18.133495 -81.021800 -5.226012 -25.609222 -144.144066 -72.389800 178.182875 12.991425 -9.230071 -0.947085 13.268006 -9.059444 0.000000 0.000000 0.000000 0.000000 0.000000 0.000000 0.000000 4.501438 -13.247259 5.168829 51.951447 8.044732 19.802278 28.386211 68.152246 0.151578 0.038582 4.875768 0.075635 0.037182 4.877452 0.000000 0.000000 0.000000 0.000000 0.000000 0.000000 0.000000 
-1.650996 17.261610 24.032941 -0.884454 -14.198508 12.689857 -7.050298 6.453860 9.772702 -11.778230 -19.110282 -12.272613 31.621143 -23.588275 -32.849705 -8.425918 3.549677 75.003079 0.000000 0.000000 0.000000 8.150416 -12.930480 -4.080150 19.720319 19.799220 -15.379415 -14.416916 -11.730426 70.879847 12.421466 -7.635048 -12.828144 0.000000 0.000000 0.000000 -2.836841 3.735091 4.667510 -2.289840 2.662178 1.059376 5.661557 2.421045 -5.176796 5.538149 0.724934 -6.739443 2.782313 0.680729 -7.271989 0.000000 0.000000 0.000000 -2.377066 8.729373 18.283332 -81.464816 -5.187597 -25.013469 -144.038369 -72.994898 178.196878 13.365253 -9.693863 -0.940261 13.647232 -9.518736 0.000000 0.000000 0.000000 0.000000 0.000000 0.000000 0.000000 3.093650 -13.271703 4.958537 54.181655 8.800859 18.351310 31.215523 66.108653 0.113225 0.007567 3.965766 0.056530 0.006584 3.966940 0.000000 0.000000 0.000000 0.000000 0.000000 0.000000 0.000000 
-1.669118 17.285931 24.223512 -0.300519 -13.554518 12.194922 -5.337372 6.189774 8.712069 -15.116186 -18.968687 -10.058469 30.505872 -23.608582 -31.079387 -7.707511 2.389195 70.984064 0.000000 0.000000 0.000000 7.469803 -11.635116 -4.384483 18.865463 18.078507 -13.902900 -13.301005 -13.122118 69.502747 12.207465 -7.974160 -12.143044 0.000000 0.000000 0.000000 -3.323430 3.443796 5.420487 -2.198984 2.342558 0.365436 5.209949 2.128410 -4.452007 5.651209 0.483515 -6.660495 2.170505 0.475063 -5.103422 0.000000 0.000000 0.000000 -1.853056 8.486105 18.412039 -81.803617 -5.042351 -24.368878 -143.901175 -73.695310 178.200407 13.784560 -10.187826 -0.939165 14.074751 -10.006003 0.000000 0.000000 0.000000 0.000000 0.000000 0.000000 0.000000 1.876731 -13.246777 4.766174 56.124355 9.526096 17.045978 33.648710 64.305487 0.082055 -0.094206 2.991334 0.040997 -0.094623 2.992063 0.000000 0.000000 0.000000 0.000000 0.000000 0.000000 0.000000 
-1.683657 17.312784 24.412104 0.278895 -12.960874 11.682622 -3.822113 5.968520 7.598095 -18.220496 -18.565479 -7.936730 29.141388 -23.480006 -29.203238 -6.846059 1.495558 67.083377 0.000000 0.000000 0.000000 6.910128 -10.431810 -4.504648 17.830887 16.426212 -12.562386 -12.147529 -14.390239 68.031383 11.870966 -8.145264 -11.409850 0.000000 0.000000 0.000000 -3.750599 3.207278 6.075184 -2.140953 2.064046 -0.025635 4.785658 1.880337 -4.031481 5.787182 0.356621 -6.594389 1.884477 0.374295 -3.880274 0.000000 0.000000 0.000000 -1.499211 8.275664 18.531287 -82.053569 -4.778475 -23.537304 -143.817475 -74.502746 178.201193 14.223358 -10.719235 -0.939828 14.524113 -10.528921 0.000000 0.000000 0.000000 0.000000 0.000000 0.000000 0.000000 0.858304 -13.370665 4.538138 57.723910 10.147733 15.989258 35.848196 62.836044 0.061680 -0.231204 1.968400 0.030845 -0.230887 1.968771 0.000000 0.000000 0.000000 0.000000 0.000000 0.000000 0.000000 
-1.694588 17.341667 24.598068 0.844979 -12.447682 11.185732 -2.533400 5.793540 6.461580 -21.010670 -17.949909 -5.972711 27.610257 -23.195474 -27.282890 -5.942155 0.880834 63.446855 0.000000 0.000000 0.000000 6.490689 -9.356032 -4.414565 16.617378 14.904290 -11.425638 -10.968292 -15.509196 66.514432 11.425935 -8.147213 -10.653669 0.000000 0.000000 0.000000 -4.118291 3.031844 6.601939 -2.131480 1.835985 -0.159607 4.412719 1.684359 -3.881873 5.969733 0.332833 -6.526117 1.878485 0.353668 -3.536660 0.000000 0.000000 0.000000 -1.329049 8.078681 18.645156 -82.219251 -4.395390 -22.525109 -143.795586 -75.428244 178.198821 14.684236 -11.293636 -0.942545 14.998387 -11.092686 0.000000 0.000000 0.000000 0.000000 0.000000 0.000000 0.000000 0.054470 -13.607868 4.300164 58.978815 10.627691 15.252822 37.768676 61.852123 0.052700 -0.394142 0.913376 0.026375 -0.393072 0.913461 0.000000 0.000000 0.000000 0.000000 0.000000 0.000000 0.000000 
-1.701912 17.371876 24.780414 1.387760 -11.791706 10.581203 -1.399792 5.601132 5.281855 -23.553969 -17.057250 -3.991487 25.862818 -22.756903 -25.430936 -5.003446 0.590915 60.250067 0.000000 0.000000 0.000000 6.128798 -8.059328 -4.392992 15.283009 13.083109 -9.936103 -9.517867 -16.752222 64.651839 10.911177 -8.050486 -10.015484 0.000000 0.000000 0.000000 -4.386914 2.785222 7.191634 -2.111381 1.534479 -0.179416 3.848819 1.443058 -3.898029 6.335806 0.321143 -6.412258 1.912280 0.343012 -3.311458 0.000000 0.000000 0.000000 -1.124778 7.972948 18.716813 -82.308445 -3.808552 -21.039243 -143.874959 -76.775333 178.121504 15.510927 -12.136329 -0.986392 15.859987 -11.909573 0.000000 0.000000 0.000000 0.000000 0.000000 0.000000 0.000000 -1.169215 -14.092163 3.863902 60.656409 11.606841 13.151402 41.371646 58.017426 0.049240 -0.592162 -0.251800 0.024645 -0.590775 -0.251967 0.000000 0.000000 0.000000 0.000000 0.000000 0.000000 0.000000 
-1.704988 17.403016 24.959156 1.904200 -11.018036 9.883238 -0.441122 5.364782 4.081737 -25.799137 -15.925826 -2.014932 24.000388 -22.174937 -23.689560 -4.088666 0.593667 57.542631 0.000000 0.000000 0.000000 5.849661 -6.527008 -4.446917 13.810973 10.970544 -8.064584 -7.778651 -18.070401 62.408319 10.344912 -7.868013 -9.465131 0.000000 0.000000 0.000000 -4.561554 2.454069 7.843718 -2.085981 1.145753 -0.089005 3.089456 1.144725 -4.197532 6.892664 0.322172 -6.169075 1.995777 0.342705 -3.193077 0.000000 0.000000 0.000000 -0.868834 8.007027 18.774674 -82.312386 -2.946141 -19.036060 -144.119095 -78.615993 177.966645 16.719767 -13.301166 -1.074123 17.132069 -13.028063 0.000000 0.000000 0.000000 0.000000 0.000000 0.000000 0.000000 -2.841216 -14.961886 3.006650 62.565173 13.384516 9.311919 46.173018 49.711806 0.065252 -0.928372 -1.720353 0.032637 -0.927488 -1.720738 0.000000 0.000000 0.000000 0.000000 0.000000 0.000000 0.000000 
-1.704286 17.434755 25.133810 2.358228 -10.450621 9.423280 0.131249 5.203943 3.122429 -27.355074 -14.970544 -0.662950 22.240748 -21.506299 -21.962524 -3.327843 0.633539 54.945478 0.000000 0.000000 0.000000 5.808122 -5.285627 -4.193240 12.134863 9.271671 -6.747055 -6.034484 -19.097664 60.272996 9.731481 -7.512925 -8.979338 0.000000 0.000000 0.000000 -4.678788 2.181128 8.183026 -2.096357 0.817457 0.084871 2.417551 0.909616 -4.765230 7.399190 0.328445 -5.744406 2.051090 0.344133 -3.160006 0.000000 0.000000 0.000000 -0.812658 8.053863 18.872512 -82.239384 -1.871889 -16.802541 -144.529092 -80.747810 177.844005 17.860671 -14.572617 -1.147235 18.342750 -14.247304 0.000000 0.000000 0.000000 0.000000 0.000000 0.000000 0.000000 -4.150148 -15.908353 1.932525 63.835735 15.183199 6.305926 49.470371 41.342107 0.126839 -1.414498 -3.639246 0.063438 -1.416339 -3.639753 0.000000 0.000000 0.000000 0.000000 0.000000 0.000000 0.000000 
